<svg id="Layer_1" data-name="Layer 1" xmlns="http://www.w3.org/2000/svg" viewBox="0 0 562.97 238.72"><defs><style>.cls-1{fill:#2cd81c;}.cls-2{fill:#13404f;}.cls-3{fill:#307858;}.cls-4{fill:#529a7a;}.cls-5{fill:#96debe;}.cls-6{fill:#74bc9c;}</style></defs><title>barayand-logo</title><path class="cls-1" d="M562,1V72.68H328v-8A63.52,63.52,0,0,1,391.33,1H562Z"/><rect class="cls-1" x="328.01" y="93.09" width="233.96" height="52.77"/><path class="cls-1" d="M562,166.26v5a65,65,0,0,1-7,28.87H328V166.26Z"/><path class="cls-1" d="M539.07,220.52a64.32,64.32,0,0,1-40.81,14.93H328V220.52Z"/><path class="cls-2" d="M41.32,111.46,24.39,80.1l23.9-20.41L66.21,112a20.54,20.54,0,0,0,9.46,1h0v29.37h0a48.33,48.33,0,0,1-12-1,19.53,19.53,0,0,1-7.47-3,21.31,21.31,0,0,1-5.47-6,34.38,34.38,0,0,1-9,8,27.09,27.09,0,0,1-12.45,3,55.66,55.66,0,0,1-15.93-2,39.29,39.29,0,0,1-13.44-5l6-26.39a34.55,34.55,0,0,0,9.46,3,31.09,31.09,0,0,0,11.45,2,42.85,42.85,0,0,0,8-.5C36.81,113.45,39.33,113,41.32,111.46Z"/><path class="cls-2" d="M75.64,142.37a2.58,2.58,0,0,1-2-1,5.27,5.27,0,0,1-.5-4V118a9.7,9.7,0,0,1,.5-4,3.74,3.74,0,0,1,2-1,33.69,33.69,0,0,0,10-1,12.87,12.87,0,0,0,5.48-3.48,17.53,17.53,0,0,0,3-7c1-3,1.49-6.47,2.49-10.45l17.42,2a21.2,21.2,0,0,0-1,5.47,15.34,15.34,0,0,0-.5,5c.13,1.88.33,4.7,2.49,7A8.88,8.88,0,0,0,119.5,113a21.54,21.54,0,0,0,3,.15h2.56l-.6,29.73a27.89,27.89,0,0,1-15.43-3c-4-2.49-7-6-8-10.46a20.44,20.44,0,0,1-10,10.46A58.61,58.61,0,0,1,75.64,142.37Z"/><path class="cls-2" d="M92.56,54.76a28.87,28.87,0,0,1,8.47,5c2.48,2,5,4.48,7.46,6.48l-5.47,8c-2,2.49-4,5.48-6,8l-7.46-6a82.06,82.06,0,0,0-8.47-5.47C85.1,65.21,88.58,59.73,92.56,54.76Z"/><path class="cls-2" d="M113.47,153.32c11-1,20.41-1.49,27.38-1.49s11,3.48,11,9.95c-.5,4.48-1.49,9-4,12.94h-11a217.76,217.76,0,0,0-25.89,2l-5.47-4.48A180.2,180.2,0,0,1,113.47,153.32Z"/><path class="cls-2" d="M132.86,112.73a27.46,27.46,0,0,0,3.51-.23,26.37,26.37,0,0,0,4.48-1c-1-3.48-2-7-4-10A92.64,92.64,0,0,0,131.37,92l19.91-19.91a71,71,0,0,1,8,14.93A54.06,54.06,0,0,1,162.75,107a52,52,0,0,1-2.49,15,79.22,79.22,0,0,1-6.45,14.89,52.84,52.84,0,0,1-12.44,4.48,75.71,75.71,0,0,1-14.94,1.5h-2.49c-.49,0-.49,0-1-.5s-1-.5-1-1a5.27,5.27,0,0,1-.5-4V118a9.7,9.7,0,0,1,.5-4,.48.48,0,0,0,.41-.19.5.5,0,0,0-.13-.64h1.69"/><path class="cls-2" d="M179.18,3.48a28.87,28.87,0,0,1,6.47,1A55.18,55.18,0,0,1,192.12,7a43.53,43.53,0,0,0,6,2,17.93,17.93,0,0,0,5.48,1,10,10,0,0,0,6.47-2,23.84,23.84,0,0,0,6-8l12,4.48a72.43,72.43,0,0,1-3.48,9.46,28.44,28.44,0,0,1-6,9,29,29,0,0,1-8.46,7,22.55,22.55,0,0,1-17.92,1.49l-6.47-2a52.62,52.62,0,0,1-5-2,17.77,17.77,0,0,0-5-1,10.46,10.46,0,0,0-6.47,2.49c-2.49,2.49-4,6-5,9.46l-13.44-5c1-3,2.49-6.47,4-10a63.37,63.37,0,0,1,5.47-10,28.35,28.35,0,0,1,8-7.47A17.8,17.8,0,0,1,179.18,3.48ZM196.6,37.33c2.49,12.45,4.48,23.4,6,33.36,1,9,2,17.42,2,26.38a75.82,75.82,0,0,1-4,27.87,33,33,0,0,1-14.93,17.93l-12-9.46c2-3,3-6.47,4.48-10a53.19,53.19,0,0,0,1.5-12.44,113.07,113.07,0,0,0-1-13c-.5-5-1.49-11-2.49-17.42a233.27,233.27,0,0,0-5-24.39Z"/><path class="cls-2" d="M234.43,87.11l2.49,5.48c2,4.48,4.48,8.46,6.47,12.44a21.5,21.5,0,0,0,5.48,6,30.48,30.48,0,0,0,3.73,1.3,30,30,0,0,0,3.74.79l-.09,29.2c-1.14-.27-2-.45-2.56-.58a10.57,10.57,0,0,1-1.34-.35,23.21,23.21,0,0,1-3.48-1.49,56.59,56.59,0,0,1-5.48,19.91,41.16,41.16,0,0,1-10.45,13.94c-4,3-8.46,5-13.44,5a47.89,47.89,0,0,1-8.46-.5,38.05,38.05,0,0,1-8-2.49,40.64,40.64,0,0,1-9.95-6l7-15.44a140.9,140.9,0,0,0,15.43-5A60.82,60.82,0,0,0,230,140.85a129.58,129.58,0,0,0-7-14.93A128.82,128.82,0,0,0,214.52,112Z"/><path class="cls-2" d="M263.81,152.32a29.4,29.4,0,0,1,8.46,5,95,95,0,0,1,7.47,7c-2,2.49-3.48,5-5.47,8l-6,8-7.46-6a48.47,48.47,0,0,0-8.47-5.48C256.34,163.27,260.32,157.8,263.81,152.32Z"/><path class="cls-2" d="M256.81,142.37a2.58,2.58,0,0,1-2-1,9.28,9.28,0,0,1-1-4V118a4.57,4.57,0,0,1,1-4,3.7,3.7,0,0,1,1.5-.89c3.23.12,6.72.11,10.45-.1,2.22-.13,4.34-.31,6.36-.56.43-.06.88-.14,1.35-.25a14.85,14.85,0,0,0,2.24-.69c-1-3.48-2-7-4-10a90.73,90.73,0,0,0-5.47-9.46l19.91-19.91c3,4.48,6,9.46,7.46,14.93A54.24,54.24,0,0,1,298.15,107a52,52,0,0,1-2.49,15,79.37,79.37,0,0,1-6.47,14.93,53.07,53.07,0,0,1-12.45,4.48,75.61,75.61,0,0,1-14.93,1.5Z"/><path class="cls-3" d="M562,1V72.68H328v-8A63.84,63.84,0,0,1,391.73,1Z"/><rect class="cls-4" x="328.01" y="93.09" width="233.96" height="52.77"/><path class="cls-5" d="M539.07,220.52a64.32,64.32,0,0,1-40.81,14.93H328V220.52Z"/><path class="cls-6" d="M562,166.26v5a65,65,0,0,1-7,28.87H328V166.26Z"/><path class="cls-2" d="M24,212.1a9,9,0,0,1,2.25-.17,11.85,11.85,0,0,1,1.87.26,7.68,7.68,0,0,1,1.32.39l.55.22-1.47,3.1a5.78,5.78,0,0,0-1.16-.36,7,7,0,0,0-1.21-.16,5.72,5.72,0,0,0-1.43.11,4.24,4.24,0,0,0-1.48.45,8.18,8.18,0,0,0-1.48,1,9.43,9.43,0,0,0-1.34,1.34,8,8,0,0,0-1,1.57,6.29,6.29,0,0,0-.53,1.64,3.3,3.3,0,0,0,.13,1.56,2,2,0,0,0,.77,1,5.24,5.24,0,0,0,1.3.64,12.92,12.92,0,0,0,1.62.44c.58.13,1.16.27,1.73.43a11.71,11.71,0,0,1,1.62.61,4.35,4.35,0,0,1,1.29,1,3.51,3.51,0,0,1,.75,1.49,5.06,5.06,0,0,1,0,2.19,6.45,6.45,0,0,1-1.48,3.06,9.84,9.84,0,0,1-3.17,2.37,16.67,16.67,0,0,1-4.23,1.45,26,26,0,0,1-5.14.48,16.09,16.09,0,0,1-5.67-.91,10,10,0,0,1-4-2.7,9.17,9.17,0,0,1-2-3.69,12.08,12.08,0,0,1-.26-4.6c.09-.74.22-1.5.37-2.28s.33-1.55.52-2.3.38-1.46.58-2.13.38-1.27.54-1.79.3-.94.41-1.25l.19-.55L8,217.15c-.51,1.6-1,3.17-1.42,4.73a34.5,34.5,0,0,0-1,4.83A11.13,11.13,0,0,0,5.52,228a6.43,6.43,0,0,0,.14,1.45,6.85,6.85,0,0,0,.45,1.46A5.18,5.18,0,0,0,7,232.25,6.35,6.35,0,0,0,9.81,234a13.13,13.13,0,0,0,4.26.62,22.53,22.53,0,0,0,4.34-.39,14.62,14.62,0,0,0,3.3-1,7,7,0,0,0,2.12-1.44,2.81,2.81,0,0,0,.85-1.68.84.84,0,0,0-.52-.85,7,7,0,0,0-1.49-.56l-2-.52a11.27,11.27,0,0,1-2.11-.75,6.33,6.33,0,0,1-1.75-1.24,3.89,3.89,0,0,1-1-2.05,8.93,8.93,0,0,1-.13-2.68,9.94,9.94,0,0,1,.62-2.57,11.08,11.08,0,0,1,1.26-2.35,10.63,10.63,0,0,1,1.79-2A11,11,0,0,1,21.52,213,9.85,9.85,0,0,1,24,212.1Z"/><path class="cls-2" d="M40.1,226.19a11.26,11.26,0,0,1-1.92-.19,18.81,18.81,0,0,1-2.22-.52,17.59,17.59,0,0,1-2-.71,4.64,4.64,0,0,1-1.35-.77L34,220.81a9.87,9.87,0,0,0,1.51.79,15.51,15.51,0,0,0,1.88.66,14.47,14.47,0,0,0,2.06.42,10.27,10.27,0,0,0,2,0,6.42,6.42,0,0,0,1.83-.43,3.51,3.51,0,0,0,1.43-1,2.41,2.41,0,0,0,.12-2,10.52,10.52,0,0,0-.6-1.74,15.15,15.15,0,0,0-1-1.81A19.91,19.91,0,0,0,42,214c-.47-.56-1-1.1-1.49-1.61a14.06,14.06,0,0,0-1.57-1.32,8.7,8.7,0,0,0-1.56-.91l1.38-3.09a10.89,10.89,0,0,1,2,1.19,19.59,19.59,0,0,1,2,1.64,20.47,20.47,0,0,1,1.84,2,21.41,21.41,0,0,1,1.6,2.18,16.71,16.71,0,0,1,1.23,2.28,12.34,12.34,0,0,1,.78,2.21,7.53,7.53,0,0,1,.19,1.71,6.22,6.22,0,0,1-.14,1.36,3.9,3.9,0,0,1-.38,1,4.23,4.23,0,0,1-.5.77,6.27,6.27,0,0,1-1.44,1.28,9.09,9.09,0,0,1-1.77.87,9.9,9.9,0,0,1-2,.49A14,14,0,0,1,40.1,226.19Z"/><path class="cls-2" d="M60.57,225a9.87,9.87,0,0,1-1,4.24A15.38,15.38,0,0,1,57.1,233a22.58,22.58,0,0,1-3.59,3.17,29.17,29.17,0,0,1-4.15,2.51l-1.46-3c.82-.41,1.62-.88,2.43-1.38a21.26,21.26,0,0,0,2.27-1.62,19.2,19.2,0,0,0,2-1.82,11.79,11.79,0,0,0,1.51-2,8.65,8.65,0,0,0,.93-2.19,6.64,6.64,0,0,0,.22-1.66,3.31,3.31,0,0,0,0-.63,20.45,20.45,0,0,0-.36-2.07c-.17-.74-.34-1.47-.54-2.18s-.38-1.39-.57-2l-.49-1.57,3.18-1a33.63,33.63,0,0,0,1.26,3.34A11.6,11.6,0,0,0,61,221.16a4.71,4.71,0,0,0,1.35,1.28,3.12,3.12,0,0,0,1.55.41h.28v3.32h-1a3.88,3.88,0,0,1-.83-.13,4.27,4.27,0,0,1-.91-.38,3.07,3.07,0,0,1-.89-.71Z"/><path class="cls-2" d="M63.47,222.89h.34a33.22,33.22,0,0,0,3.45-.18,26.91,26.91,0,0,0,2.83-.46,14.16,14.16,0,0,0,2.11-.62,4.57,4.57,0,0,0,1.27-.68,2.31,2.31,0,0,0,.36-.34l.27-.3H72.39a11.76,11.76,0,0,1-1.78-.14,8.35,8.35,0,0,1-1.63-.44,6.11,6.11,0,0,1-1.39-.72,4.63,4.63,0,0,1-1.07-1,5.21,5.21,0,0,1-.48-.74,6.09,6.09,0,0,1-.39-1,5.32,5.32,0,0,1-.18-1.26,8.23,8.23,0,0,1,.1-1.57,9.87,9.87,0,0,1,1.81-4.31,5.12,5.12,0,0,1,1.72-1.52,4.21,4.21,0,0,1,2-.5,5.46,5.46,0,0,1,4.07,2,9.18,9.18,0,0,1,1.39,2,12.64,12.64,0,0,1,1,2.44,15.27,15.27,0,0,1,.51,2.68,11.42,11.42,0,0,1,0,2.74,7.07,7.07,0,0,1-.85,2.68,6.87,6.87,0,0,1-1.63,1.93,9,9,0,0,1-2.27,1.3,16.78,16.78,0,0,1-2.77.78,23.41,23.41,0,0,1-3.11.4c-1.08.08-2.19.12-3.31.13h-.57Zm10.22-21.76-2.76,2.77-2.78-2.79,2.76-2.76Zm-2.63,9.36a1.07,1.07,0,0,0-.56.23,2.63,2.63,0,0,0-.64.69,5.25,5.25,0,0,0-.6,1.12,6.75,6.75,0,0,0-.43,1.52,3,3,0,0,0,0,1.27,1.75,1.75,0,0,0,.53.87,2.5,2.5,0,0,0,1,.51,7.11,7.11,0,0,0,1.37.22h2.93a11.72,11.72,0,0,0-.64-3.1,7,7,0,0,0-1.38-2.43,4.37,4.37,0,0,0-.69-.6A1.51,1.51,0,0,0,71.06,210.49Z"/><path class="cls-2" d="M110.23,222.89v3.32h-.34a13.12,13.12,0,0,1-1.53-.11,6.11,6.11,0,0,1-1.77-.52,5.15,5.15,0,0,1-2.24-2.07c-.71.12-1.37.2-2,.25s-1.18.08-1.73.08q-4.38,0-6.09-2.12a3.39,3.39,0,0,1-.67-1.22,5.39,5.39,0,0,1-.15-2.46,4.64,4.64,0,0,1,.26-.9,9.31,9.31,0,0,1,1.09-1.75A11.32,11.32,0,0,1,96.44,214a15,15,0,0,1,1.49-1.14c.52-.33,1-.62,1.49-.88a14.19,14.19,0,0,1,1.37-.64c.43-.18.8-.32,1.12-.44-.09-.85-.16-1.48-.2-1.89l-.06-.61,3.33-.7h0a3.18,3.18,0,0,0,.06.62c.06.32.08.7.12,1.14s.1.9.15,1.39.1,1,.14,1.38.09.8.12,1.12.06.51.07.59c.18,1.46.34,2.65.49,3.58s.28,1.67.39,2.22.2.95.27,1.18.12.38.15.45a2.47,2.47,0,0,0,1.09,1.25,4.24,4.24,0,0,0,1.86.33Zm-7.93-8.58-1,.41c-.37.17-.76.35-1.16.56s-.8.44-1.19.69a7.08,7.08,0,0,0-1,.81,4.25,4.25,0,0,0-.75.94,2.05,2.05,0,0,0-.29,1.05,1.2,1.2,0,0,0,.35.9,2.42,2.42,0,0,0,.89.55,5.37,5.37,0,0,0,1.25.27,10.85,10.85,0,0,0,1.4.06,6.47,6.47,0,0,0,1.34-.09,10,10,0,0,0,1.08-.15c-.14-.66-.28-1.46-.42-2.41S102.48,215.75,102.3,214.31Z"/><path class="cls-2" d="M129.63,226.21h-.34a25.43,25.43,0,0,1-5-.47,13.07,13.07,0,0,1-4.17-1.6,16,16,0,0,1-2.31.86,26,26,0,0,1-2.6.65c-.9.17-1.79.3-2.69.4a23.27,23.27,0,0,1-2.59.13h-.34v-3.32H110a14.71,14.71,0,0,0,1.84-.08c.65-.08,1.29-.12,1.93-.22s1.24-.21,1.81-.34a10.62,10.62,0,0,0,1.46-.43c-.44-.41-.89-.86-1.34-1.35s-.91-1-1.37-1.54l-1.47-1.62-1.41-1.65.17-2.36a9.58,9.58,0,0,1,1.8-1.3,13,13,0,0,1,1.86-.86,13.45,13.45,0,0,1,3.36-.75,13.57,13.57,0,0,1,3.37,0,11.57,11.57,0,0,1,3,.8,5.85,5.85,0,0,1,1.46.88,4.46,4.46,0,0,1,.86.93,2.86,2.86,0,0,1,.42.88,3.58,3.58,0,0,1,.11.73,3.79,3.79,0,0,1-.27,1.79,10.68,10.68,0,0,1-1,2,15,15,0,0,1-1.54,2,12.63,12.63,0,0,1-1.74,1.61,12.79,12.79,0,0,0,2.73.66,24.28,24.28,0,0,0,3.3.22h.34Zm-9.49-6.05a6.71,6.71,0,0,0,1-.67,9.65,9.65,0,0,0,1-.92c.32-.32.63-.65.92-1s.54-.72.75-1.06a6.61,6.61,0,0,0,.52-.94,1.79,1.79,0,0,0,.19-.72,6.63,6.63,0,0,0-2-.88,9.37,9.37,0,0,0-2.41-.31,10.31,10.31,0,0,0-2.53.31,8.67,8.67,0,0,0-2.35.93c.93,1.14,1.79,2.15,2.57,3A20.82,20.82,0,0,0,120.14,220.16Z"/><path class="cls-2" d="M129,222.89h.38a4,4,0,0,0,1.79-.4,5.24,5.24,0,0,0,1.42-1.05,7.62,7.62,0,0,0,1.08-1.5,12.85,12.85,0,0,0,.79-1.78,17.23,17.23,0,0,0,.58-1.85c.16-.62.29-1.21.41-1.77l3.35.72q-.13.41-.33,1.05c-.13.43-.25.89-.38,1.38s-.23,1-.32,1.51a8.55,8.55,0,0,0-.14,1.43,4.41,4.41,0,0,0,.09.89,2.4,2.4,0,0,0,.29.77,1.48,1.48,0,0,0,.56.55,1.82,1.82,0,0,0,.89.2,2.7,2.7,0,0,0,1.56-.47,5.13,5.13,0,0,0,1.22-1.24,9.29,9.29,0,0,0,.93-1.73,17.43,17.43,0,0,0,.68-2c.18-.67.34-1.31.46-1.94s.21-1.17.28-1.64l3.25.6c-.12.73-.23,1.36-.31,1.89s-.16,1.08-.23,1.68a13.82,13.82,0,0,0-.1,1.58,8.08,8.08,0,0,0,.09,1.2,3.15,3.15,0,0,0,.31,1,2.12,2.12,0,0,0,.55.71,1.6,1.6,0,0,0,.86.33,4,4,0,0,0,1.47-.06A2,2,0,0,0,152,221.4a4.69,4.69,0,0,0,.17-1.34,9.8,9.8,0,0,0-.26-2.09c-.18-.75-.39-1.48-.63-2.2s-.5-1.38-.76-2-.49-1.1-.67-1.46l3-1.56.32.65c.16.32.34.72.54,1.19s.41,1,.63,1.59.41,1.21.6,1.86a17.52,17.52,0,0,1,.46,2,11.19,11.19,0,0,1,.18,2,8.12,8.12,0,0,1-.41,2.63,5.29,5.29,0,0,1-1.22,2,5.36,5.36,0,0,1-2,1.28,7.85,7.85,0,0,1-2.88.43,4.41,4.41,0,0,1-1.3-.2,5.72,5.72,0,0,1-1.24-.55,5.89,5.89,0,0,1-1.1-.81,5.53,5.53,0,0,1-.87-1,8.23,8.23,0,0,1-2.31,1.88,5.68,5.68,0,0,1-2.73.69,5.12,5.12,0,0,1-1.29-.16,4.82,4.82,0,0,1-1.28-.48,4.61,4.61,0,0,1-1.11-.8,3.13,3.13,0,0,1-.77-1.1,9.36,9.36,0,0,1-1.09,1,6.85,6.85,0,0,1-2.76,1.2,9.06,9.06,0,0,1-1.8.16H129Z"/><path class="cls-2" d="M158.73,234.84a21.91,21.91,0,0,0,4.68-1.46,16.86,16.86,0,0,0,3.54-2.1,10.56,10.56,0,0,0,2.33-2.48,6.6,6.6,0,0,0,1.05-2.59h-1.69a13.36,13.36,0,0,1-1.91-.09,7.19,7.19,0,0,1-5.44-2.41,4.9,4.9,0,0,1-1-2.27,8.35,8.35,0,0,1,0-2.64,10.76,10.76,0,0,1,.72-2.61,9.23,9.23,0,0,1,1.24-2.18,6.31,6.31,0,0,1,1.87-1.62,4.27,4.27,0,0,1,2.1-.55,6,6,0,0,1,4.42,2.17,10,10,0,0,1,1.29,1.8,13,13,0,0,1,1,2.14,16.56,16.56,0,0,1,.65,2.39,15.53,15.53,0,0,1,.27,2.54h1.61v3.32h-1.87a12.66,12.66,0,0,1-1.83,4.54,15.06,15.06,0,0,1-3.23,3.53,17.6,17.6,0,0,1-4.2,2.48,21.09,21.09,0,0,1-4.79,1.35Zm7.48-19.65a1.43,1.43,0,0,0-.94.38,4,4,0,0,0-.79,1,6.54,6.54,0,0,0-.58,1.33,7.25,7.25,0,0,0-.33,1.45,5,5,0,0,0,0,1.34,2,2,0,0,0,.37,1,1.88,1.88,0,0,0,.64.55,4.09,4.09,0,0,0,.81.34,8,8,0,0,0,.85.19c.28,0,.52.06.72.07.71,0,1.37.06,2,0s1.11,0,1.55-.06a13,13,0,0,0-.25-2.06,11.15,11.15,0,0,0-.53-1.79,8.61,8.61,0,0,0-.72-1.5,9.45,9.45,0,0,0-.82-1.17l-.38-.36a4.06,4.06,0,0,0-.46-.36,3.6,3.6,0,0,0-.52-.26A1.64,1.64,0,0,0,166.21,215.19Z"/><path class="cls-2" d="M174.75,222.89h5.19a8.48,8.48,0,0,0,1.73-.24,5.17,5.17,0,0,0,1.41-.6,2.76,2.76,0,0,0,.95-1.11,3.35,3.35,0,0,0,.24-.89,6.22,6.22,0,0,0,0-1.22,9.05,9.05,0,0,0-.23-1.46,11.92,11.92,0,0,0-.54-1.66L182.06,212l3-1.49a.71.71,0,0,0,.15.35,6,6,0,0,1,.4.89c.16.37.34.81.53,1.3s.38,1,.55,1.57a18.36,18.36,0,0,1,.87,4.34,7.2,7.2,0,0,1-.48,3.25,5.62,5.62,0,0,1-1.35,1.92,6.71,6.71,0,0,1-1.93,1.22,9.31,9.31,0,0,1-2.38.64,18.62,18.62,0,0,1-2.69.19h-4Zm7.19-18.13-2.75,2.75-2.78-2.77,2.75-2.76Zm7,0-2.74,2.76-2.78-2.78,2.69-2.74Z"/><path class="cls-2" d="M202.49,234.84a21.91,21.91,0,0,0,4.68-1.46,16.93,16.93,0,0,0,3.55-2.1,10.77,10.77,0,0,0,2.33-2.48,6.37,6.37,0,0,0,1-2.59h-1.69a13.22,13.22,0,0,1-1.9-.09,7.21,7.21,0,0,1-5.45-2.41,4.9,4.9,0,0,1-1-2.27,8.35,8.35,0,0,1,0-2.64,10.76,10.76,0,0,1,.72-2.61A9.59,9.59,0,0,1,206,214a6.35,6.35,0,0,1,1.88-1.62,4.27,4.27,0,0,1,2.09-.55,6,6,0,0,1,4.42,2.17,10.33,10.33,0,0,1,1.52,2.19,14.1,14.1,0,0,1,1.06,2.68,17,17,0,0,1,.55,6.09,13.11,13.11,0,0,1-.84,3.48,13.88,13.88,0,0,1-1.64,3,15.13,15.13,0,0,1-2.31,2.49,17.51,17.51,0,0,1-2.84,2,19.71,19.71,0,0,1-3.19,1.41,21.43,21.43,0,0,1-3.43.83ZM210,215.19a1.39,1.39,0,0,0-.93.38,3.5,3.5,0,0,0-.79,1,6.58,6.58,0,0,0-.59,1.33,9,9,0,0,0-.33,1.45,6,6,0,0,0,0,1.34,1.92,1.92,0,0,0,.38,1,2,2,0,0,0,.63.55,3.94,3.94,0,0,0,.82.34,8.45,8.45,0,0,0,.84.19c.28,0,.52.06.73.07.71,0,1.36.06,2,0s1.11,0,1.56-.06a13,13,0,0,0-.26-2.06,11.11,11.11,0,0,0-.52-1.79,10.34,10.34,0,0,0-.72-1.5,8,8,0,0,0-.83-1.17l-.38-.36a4.06,4.06,0,0,0-.46-.36,3.06,3.06,0,0,0-.51-.26,1.74,1.74,0,0,0-.64-.09Z"/><path class="cls-2" d="M253,222.89v3.32h-.33a9.6,9.6,0,0,1-2-.18,6.64,6.64,0,0,1-1.51-.48,5.28,5.28,0,0,1-1.15-.72,5.76,5.76,0,0,1-.84-.87,14.22,14.22,0,0,1-1.44,1,7.92,7.92,0,0,1-1.54.7,9.93,9.93,0,0,1-1.79.43,15.71,15.71,0,0,1-2.17.14,8.51,8.51,0,0,1-3.71-.82,11,11,0,0,1-3.14-2.32l1.92-2.69a10.43,10.43,0,0,0,2,1.51,8,8,0,0,0,2,.78,6.12,6.12,0,0,0,2,.12,6.93,6.93,0,0,0,1.9-.45,6.73,6.73,0,0,0,1.41-.73,7,7,0,0,0,.84-.69L240.2,208l3.09-1.29c.54,1.33,1,2.53,1.48,3.62s.87,2.11,1.27,3.08l1.19,2.88c.39.94.81,1.93,1.25,3,.22.54.44,1,.65,1.48a4.33,4.33,0,0,0,.75,1.14,2.92,2.92,0,0,0,1.11.72,4.39,4.39,0,0,0,1.68.27Z"/><path class="cls-2" d="M252.33,222.89h.37a4,4,0,0,0,1.8-.4,5.19,5.19,0,0,0,1.41-1.05,7.23,7.23,0,0,0,1.08-1.5,16.69,16.69,0,0,0,.8-1.78c.22-.61.41-1.23.57-1.85s.3-1.21.41-1.77l3.36.72q-.13.41-.33,1.05c-.13.43-.26.89-.38,1.38s-.24,1-.33,1.51a8.54,8.54,0,0,0-.13,1.43,4.4,4.4,0,0,0,.08.89,2.4,2.4,0,0,0,.29.77,1.55,1.55,0,0,0,.56.55,1.88,1.88,0,0,0,.9.2,2.77,2.77,0,0,0,1.55-.47,5,5,0,0,0,1.22-1.24,8.74,8.74,0,0,0,.93-1.73,17.43,17.43,0,0,0,.68-2c.19-.67.34-1.31.46-1.94s.21-1.17.28-1.64l3.26.6c-.13.73-.23,1.36-.32,1.89s-.16,1.08-.23,1.68a13.82,13.82,0,0,0-.1,1.58,8.08,8.08,0,0,0,.09,1.2,3.87,3.87,0,0,0,.31,1,2,2,0,0,0,.56.71,1.53,1.53,0,0,0,.86.33,3.83,3.83,0,0,0,1.47,0,2.15,2.15,0,0,0,1-.55,2.4,2.4,0,0,0,.55-1,5.08,5.08,0,0,0,.17-1.34,9.21,9.21,0,0,0-.27-2.09c-.17-.75-.38-1.48-.62-2.2s-.5-1.38-.77-2-.49-1.1-.67-1.46l3-1.56c.06.11.16.33.32.65s.34.72.55,1.19.41,1,.62,1.59.42,1.21.6,1.86a17.52,17.52,0,0,1,.46,2,11.19,11.19,0,0,1,.18,2,8.12,8.12,0,0,1-.41,2.63,5.1,5.1,0,0,1-1.22,2,5.36,5.36,0,0,1-2,1.28,8,8,0,0,1-2.87.43,4.41,4.41,0,0,1-1.3-.2,5.59,5.59,0,0,1-1.25-.55,6.63,6.63,0,0,1-1.1-.81,5.53,5.53,0,0,1-.87-1,7.88,7.88,0,0,1-2.3,1.88,5.79,5.79,0,0,1-2.73.69,5.68,5.68,0,0,1-2.58-.64,4.61,4.61,0,0,1-1.11-.8,3.27,3.27,0,0,1-.77-1.1,8.62,8.62,0,0,1-1.09,1,6.8,6.8,0,0,1-1.25.73,6.54,6.54,0,0,1-1.5.47,9.16,9.16,0,0,1-1.81.16h-.35Zm9.32-16.65,2.75-2.77,2.78,2.78L264.43,209Zm4.09-5.11,2.51-2.51,2.52,2.53-2.5,2.51Zm3.36,5.12,2.74-2.74,2.78,2.78L271.88,209Z"/><path class="cls-2" d="M289.16,215.19c.15.53.31,1.05.47,1.57s.3,1,.42,1.55l.42,1.63c.14.55.27,1.1.39,1.63s.22,1.07.3,1.59a11,11,0,0,1,.11,1.52,9.58,9.58,0,0,1-.43,2.86,13.06,13.06,0,0,1-1.2,2.67,15.71,15.71,0,0,1-1.83,2.46,23,23,0,0,1-2.31,2.21,24.76,24.76,0,0,1-2.63,1.9,27.44,27.44,0,0,1-2.8,1.57l-1.48-3a27.37,27.37,0,0,0,3.46-2,18.12,18.12,0,0,0,3-2.53,12.64,12.64,0,0,0,2.11-2.92,6.83,6.83,0,0,0,.8-3.19,8.4,8.4,0,0,0-.11-1.32c-.07-.46-.17-.94-.28-1.42s-.24-1-.37-1.46-.27-1-.39-1.43c-.27-.94-.56-1.89-.87-2.84Z"/></svg>